<mxfile host="app.diagrams.net" agent="Mozilla/5.0 (Windows NT 10.0; Win64; x64) AppleWebKit/537.36 (KHTML, like Gecko) Chrome/137.0.0.0 Safari/537.36" version="27.1.4">
  <diagram name="Halaman-1" id="FoLJx8yIWWeVqaUlKMgi">
    <mxGraphModel dx="648" dy="729" grid="1" gridSize="10" guides="1" tooltips="1" connect="1" arrows="1" fold="1" page="1" pageScale="1" pageWidth="827" pageHeight="1169" math="0" shadow="0">
      <root>
        <mxCell id="0" />
        <mxCell id="1" parent="0" />
        <mxCell id="QjduJrOq--Q0YO0QnX14-73" value="SI Laporan&lt;div&gt;Pegawai&lt;/div&gt;" style="ellipse;whiteSpace=wrap;html=1;" parent="1" vertex="1">
          <mxGeometry x="320" y="660" width="80" height="80" as="geometry" />
        </mxCell>
        <mxCell id="QjduJrOq--Q0YO0QnX14-75" value="Pemilik" style="rounded=0;whiteSpace=wrap;html=1;" parent="1" vertex="1">
          <mxGeometry x="160" y="680.5" width="80" height="39" as="geometry" />
        </mxCell>
        <mxCell id="QjduJrOq--Q0YO0QnX14-76" value="Pegawai" style="rounded=0;whiteSpace=wrap;html=1;" parent="1" vertex="1">
          <mxGeometry x="160" y="430" width="80" height="40" as="geometry" />
        </mxCell>
        <mxCell id="QjduJrOq--Q0YO0QnX14-107" value="Member" style="rounded=0;whiteSpace=wrap;html=1;" parent="1" vertex="1">
          <mxGeometry x="531" y="280.5" width="80" height="39" as="geometry" />
        </mxCell>
        <mxCell id="QjduJrOq--Q0YO0QnX14-108" value="D1" style="rounded=0;whiteSpace=wrap;html=1;" parent="1" vertex="1">
          <mxGeometry x="491" y="280.5" width="40" height="39" as="geometry" />
        </mxCell>
        <mxCell id="QjduJrOq--Q0YO0QnX14-109" value="Booking" style="rounded=0;whiteSpace=wrap;html=1;" parent="1" vertex="1">
          <mxGeometry x="531" y="380" width="80" height="39" as="geometry" />
        </mxCell>
        <mxCell id="QjduJrOq--Q0YO0QnX14-110" value="D2" style="rounded=0;whiteSpace=wrap;html=1;" parent="1" vertex="1">
          <mxGeometry x="491" y="380" width="40" height="39" as="geometry" />
        </mxCell>
        <mxCell id="QjduJrOq--Q0YO0QnX14-111" value="Layanan" style="rounded=0;whiteSpace=wrap;html=1;" parent="1" vertex="1">
          <mxGeometry x="531" y="480.5" width="80" height="39" as="geometry" />
        </mxCell>
        <mxCell id="QjduJrOq--Q0YO0QnX14-112" value="D3" style="rounded=0;whiteSpace=wrap;html=1;" parent="1" vertex="1">
          <mxGeometry x="491" y="480.5" width="40" height="39" as="geometry" />
        </mxCell>
        <mxCell id="QjduJrOq--Q0YO0QnX14-113" value="Pembayaran" style="rounded=0;whiteSpace=wrap;html=1;" parent="1" vertex="1">
          <mxGeometry x="531" y="581" width="80" height="39" as="geometry" />
        </mxCell>
        <mxCell id="QjduJrOq--Q0YO0QnX14-114" value="D4" style="rounded=0;whiteSpace=wrap;html=1;" parent="1" vertex="1">
          <mxGeometry x="491" y="581" width="40" height="39" as="geometry" />
        </mxCell>
        <mxCell id="QjduJrOq--Q0YO0QnX14-115" value="Pegawai" style="rounded=0;whiteSpace=wrap;html=1;" parent="1" vertex="1">
          <mxGeometry x="531" y="680.5" width="80" height="39" as="geometry" />
        </mxCell>
        <mxCell id="QjduJrOq--Q0YO0QnX14-116" value="D5" style="rounded=0;whiteSpace=wrap;html=1;" parent="1" vertex="1">
          <mxGeometry x="491" y="680.5" width="40" height="39" as="geometry" />
        </mxCell>
        <mxCell id="ulxu33_0uJGca3cwwNkL-5" value="SI Laporan&lt;div&gt;Member&lt;/div&gt;" style="ellipse;whiteSpace=wrap;html=1;" vertex="1" parent="1">
          <mxGeometry x="323" y="260" width="80" height="80" as="geometry" />
        </mxCell>
        <mxCell id="ulxu33_0uJGca3cwwNkL-6" value="SI Laporan&lt;div&gt;Booking&lt;/div&gt;" style="ellipse;whiteSpace=wrap;html=1;" vertex="1" parent="1">
          <mxGeometry x="320" y="360" width="80" height="80" as="geometry" />
        </mxCell>
        <mxCell id="ulxu33_0uJGca3cwwNkL-7" value="SI Laporan&lt;div&gt;Pembayaran&lt;/div&gt;" style="ellipse;whiteSpace=wrap;html=1;" vertex="1" parent="1">
          <mxGeometry x="320" y="560" width="80" height="80" as="geometry" />
        </mxCell>
        <mxCell id="ulxu33_0uJGca3cwwNkL-8" value="SI Laporan&lt;div&gt;Layanan&lt;/div&gt;" style="ellipse;whiteSpace=wrap;html=1;" vertex="1" parent="1">
          <mxGeometry x="320" y="460" width="80" height="80" as="geometry" />
        </mxCell>
        <mxCell id="ulxu33_0uJGca3cwwNkL-11" value="" style="endArrow=classic;html=1;rounded=0;exitX=0;exitY=0.5;exitDx=0;exitDy=0;entryX=1;entryY=0.5;entryDx=0;entryDy=0;" edge="1" parent="1" source="QjduJrOq--Q0YO0QnX14-108" target="ulxu33_0uJGca3cwwNkL-5">
          <mxGeometry width="50" height="50" relative="1" as="geometry">
            <mxPoint x="410.5" y="399.5" as="sourcePoint" />
            <mxPoint x="396.5" y="309.5" as="targetPoint" />
          </mxGeometry>
        </mxCell>
        <mxCell id="ulxu33_0uJGca3cwwNkL-12" value="" style="endArrow=classic;html=1;rounded=0;exitX=0;exitY=0.5;exitDx=0;exitDy=0;entryX=1;entryY=0.5;entryDx=0;entryDy=0;" edge="1" parent="1" source="QjduJrOq--Q0YO0QnX14-110">
          <mxGeometry width="50" height="50" relative="1" as="geometry">
            <mxPoint x="520" y="399" as="sourcePoint" />
            <mxPoint x="400" y="399" as="targetPoint" />
          </mxGeometry>
        </mxCell>
        <mxCell id="ulxu33_0uJGca3cwwNkL-13" value="" style="endArrow=classic;html=1;rounded=0;exitX=0;exitY=0.5;exitDx=0;exitDy=0;entryX=1;entryY=0.5;entryDx=0;entryDy=0;" edge="1" parent="1" source="QjduJrOq--Q0YO0QnX14-112">
          <mxGeometry width="50" height="50" relative="1" as="geometry">
            <mxPoint x="520" y="499.5" as="sourcePoint" />
            <mxPoint x="400" y="499.5" as="targetPoint" />
          </mxGeometry>
        </mxCell>
        <mxCell id="ulxu33_0uJGca3cwwNkL-14" value="" style="endArrow=classic;html=1;rounded=0;exitX=0;exitY=0.5;exitDx=0;exitDy=0;entryX=1;entryY=0.5;entryDx=0;entryDy=0;" edge="1" parent="1" source="QjduJrOq--Q0YO0QnX14-114">
          <mxGeometry width="50" height="50" relative="1" as="geometry">
            <mxPoint x="521" y="600" as="sourcePoint" />
            <mxPoint x="401" y="600" as="targetPoint" />
          </mxGeometry>
        </mxCell>
        <mxCell id="ulxu33_0uJGca3cwwNkL-15" value="" style="endArrow=classic;html=1;rounded=0;exitX=0;exitY=0.5;exitDx=0;exitDy=0;entryX=1;entryY=0.5;entryDx=0;entryDy=0;" edge="1" parent="1" source="QjduJrOq--Q0YO0QnX14-116">
          <mxGeometry width="50" height="50" relative="1" as="geometry">
            <mxPoint x="520" y="699.5" as="sourcePoint" />
            <mxPoint x="400" y="699.5" as="targetPoint" />
          </mxGeometry>
        </mxCell>
        <mxCell id="ulxu33_0uJGca3cwwNkL-16" value="" style="endArrow=classic;html=1;rounded=0;exitX=0.02;exitY=0.366;exitDx=0;exitDy=0;exitPerimeter=0;entryX=0.25;entryY=0;entryDx=0;entryDy=0;" edge="1" parent="1" source="ulxu33_0uJGca3cwwNkL-5" target="QjduJrOq--Q0YO0QnX14-76">
          <mxGeometry width="50" height="50" relative="1" as="geometry">
            <mxPoint x="230" y="420" as="sourcePoint" />
            <mxPoint x="280" y="370" as="targetPoint" />
            <Array as="points">
              <mxPoint x="180" y="289" />
            </Array>
          </mxGeometry>
        </mxCell>
        <mxCell id="ulxu33_0uJGca3cwwNkL-18" value="" style="endArrow=classic;html=1;rounded=0;exitX=0.014;exitY=0.624;exitDx=0;exitDy=0;entryX=0.75;entryY=0;entryDx=0;entryDy=0;exitPerimeter=0;" edge="1" parent="1" source="ulxu33_0uJGca3cwwNkL-6" target="QjduJrOq--Q0YO0QnX14-76">
          <mxGeometry width="50" height="50" relative="1" as="geometry">
            <mxPoint x="200" y="350" as="sourcePoint" />
            <mxPoint x="250" y="300" as="targetPoint" />
            <Array as="points">
              <mxPoint x="220" y="410" />
            </Array>
          </mxGeometry>
        </mxCell>
        <mxCell id="ulxu33_0uJGca3cwwNkL-20" value="" style="endArrow=classic;html=1;rounded=0;exitX=0.38;exitY=0.004;exitDx=0;exitDy=0;exitPerimeter=0;entryX=0.016;entryY=0.62;entryDx=0;entryDy=0;entryPerimeter=0;" edge="1" parent="1" source="QjduJrOq--Q0YO0QnX14-76" target="ulxu33_0uJGca3cwwNkL-5">
          <mxGeometry width="50" height="50" relative="1" as="geometry">
            <mxPoint x="220" y="430" as="sourcePoint" />
            <mxPoint x="270" y="380" as="targetPoint" />
            <Array as="points">
              <mxPoint x="190" y="310" />
            </Array>
          </mxGeometry>
        </mxCell>
        <mxCell id="ulxu33_0uJGca3cwwNkL-21" value="" style="endArrow=classic;html=1;rounded=0;exitX=0.625;exitY=-0.005;exitDx=0;exitDy=0;exitPerimeter=0;entryX=0.017;entryY=0.372;entryDx=0;entryDy=0;entryPerimeter=0;" edge="1" parent="1" source="QjduJrOq--Q0YO0QnX14-76" target="ulxu33_0uJGca3cwwNkL-6">
          <mxGeometry width="50" height="50" relative="1" as="geometry">
            <mxPoint x="220" y="360" as="sourcePoint" />
            <mxPoint x="310" y="300" as="targetPoint" />
            <Array as="points">
              <mxPoint x="210" y="390" />
            </Array>
          </mxGeometry>
        </mxCell>
        <mxCell id="ulxu33_0uJGca3cwwNkL-22" value="" style="endArrow=classic;html=1;rounded=0;entryX=0.021;entryY=0.626;entryDx=0;entryDy=0;entryPerimeter=0;exitX=0.628;exitY=0.995;exitDx=0;exitDy=0;exitPerimeter=0;" edge="1" parent="1" source="QjduJrOq--Q0YO0QnX14-76" target="ulxu33_0uJGca3cwwNkL-8">
          <mxGeometry width="50" height="50" relative="1" as="geometry">
            <mxPoint x="160" y="430" as="sourcePoint" />
            <mxPoint x="260" y="435" as="targetPoint" />
            <Array as="points">
              <mxPoint x="210" y="510" />
            </Array>
          </mxGeometry>
        </mxCell>
        <mxCell id="ulxu33_0uJGca3cwwNkL-23" value="" style="endArrow=classic;html=1;rounded=0;entryX=0.75;entryY=1;entryDx=0;entryDy=0;exitX=0.021;exitY=0.371;exitDx=0;exitDy=0;exitPerimeter=0;" edge="1" parent="1" source="ulxu33_0uJGca3cwwNkL-8" target="QjduJrOq--Q0YO0QnX14-76">
          <mxGeometry width="50" height="50" relative="1" as="geometry">
            <mxPoint x="240" y="440" as="sourcePoint" />
            <mxPoint x="230" y="390" as="targetPoint" />
            <Array as="points">
              <mxPoint x="220" y="490" />
            </Array>
          </mxGeometry>
        </mxCell>
        <mxCell id="ulxu33_0uJGca3cwwNkL-24" value="" style="endArrow=classic;html=1;rounded=0;exitX=0.377;exitY=0.999;exitDx=0;exitDy=0;exitPerimeter=0;entryX=0.011;entryY=0.371;entryDx=0;entryDy=0;entryPerimeter=0;" edge="1" parent="1" source="QjduJrOq--Q0YO0QnX14-76" target="ulxu33_0uJGca3cwwNkL-7">
          <mxGeometry width="50" height="50" relative="1" as="geometry">
            <mxPoint x="150" y="440" as="sourcePoint" />
            <mxPoint x="150" y="480" as="targetPoint" />
            <Array as="points">
              <mxPoint x="190" y="590" />
            </Array>
          </mxGeometry>
        </mxCell>
        <mxCell id="ulxu33_0uJGca3cwwNkL-25" value="" style="endArrow=classic;html=1;rounded=0;exitX=0.011;exitY=0.62;exitDx=0;exitDy=0;exitPerimeter=0;entryX=0.25;entryY=1;entryDx=0;entryDy=0;" edge="1" parent="1" source="ulxu33_0uJGca3cwwNkL-7" target="QjduJrOq--Q0YO0QnX14-76">
          <mxGeometry width="50" height="50" relative="1" as="geometry">
            <mxPoint x="210" y="520" as="sourcePoint" />
            <mxPoint x="260" y="470" as="targetPoint" />
            <Array as="points">
              <mxPoint x="180" y="610" />
            </Array>
          </mxGeometry>
        </mxCell>
        <mxCell id="ulxu33_0uJGca3cwwNkL-28" value="D pegawai" style="text;html=1;align=center;verticalAlign=middle;resizable=0;points=[];autosize=1;strokeColor=none;fillColor=none;" vertex="1" parent="1">
          <mxGeometry x="403" y="679" width="80" height="30" as="geometry" />
        </mxCell>
        <mxCell id="ulxu33_0uJGca3cwwNkL-29" value="D pembayaran" style="text;html=1;align=center;verticalAlign=middle;resizable=0;points=[];autosize=1;strokeColor=none;fillColor=none;" vertex="1" parent="1">
          <mxGeometry x="399" y="580" width="100" height="30" as="geometry" />
        </mxCell>
        <mxCell id="ulxu33_0uJGca3cwwNkL-32" value="" style="endArrow=classic;html=1;rounded=0;exitX=0.5;exitY=0;exitDx=0;exitDy=0;entryX=0.25;entryY=1;entryDx=0;entryDy=0;" edge="1" parent="1" source="ulxu33_0uJGca3cwwNkL-5" target="QjduJrOq--Q0YO0QnX14-75">
          <mxGeometry width="50" height="50" relative="1" as="geometry">
            <mxPoint x="240" y="530" as="sourcePoint" />
            <mxPoint x="160" y="890" as="targetPoint" />
            <Array as="points">
              <mxPoint x="363" y="250" />
              <mxPoint x="660" y="250" />
              <mxPoint x="660" y="840" />
              <mxPoint x="180" y="840" />
            </Array>
          </mxGeometry>
        </mxCell>
        <mxCell id="ulxu33_0uJGca3cwwNkL-33" value="" style="endArrow=classic;html=1;rounded=0;exitX=1;exitY=0.25;exitDx=0;exitDy=0;entryX=0.015;entryY=0.368;entryDx=0;entryDy=0;entryPerimeter=0;" edge="1" parent="1" source="QjduJrOq--Q0YO0QnX14-75" target="QjduJrOq--Q0YO0QnX14-73">
          <mxGeometry width="50" height="50" relative="1" as="geometry">
            <mxPoint x="330" y="560" as="sourcePoint" />
            <mxPoint x="310" y="690" as="targetPoint" />
          </mxGeometry>
        </mxCell>
        <mxCell id="ulxu33_0uJGca3cwwNkL-34" value="" style="endArrow=classic;html=1;rounded=0;entryX=1;entryY=0.75;entryDx=0;entryDy=0;exitX=0.011;exitY=0.615;exitDx=0;exitDy=0;exitPerimeter=0;" edge="1" parent="1" source="QjduJrOq--Q0YO0QnX14-73" target="QjduJrOq--Q0YO0QnX14-75">
          <mxGeometry width="50" height="50" relative="1" as="geometry">
            <mxPoint x="300" y="660" as="sourcePoint" />
            <mxPoint x="350" y="610" as="targetPoint" />
          </mxGeometry>
        </mxCell>
        <mxCell id="ulxu33_0uJGca3cwwNkL-35" value="" style="endArrow=classic;html=1;rounded=0;exitX=0.5;exitY=0;exitDx=0;exitDy=0;entryX=0.75;entryY=1;entryDx=0;entryDy=0;" edge="1" parent="1" source="QjduJrOq--Q0YO0QnX14-73" target="QjduJrOq--Q0YO0QnX14-75">
          <mxGeometry width="50" height="50" relative="1" as="geometry">
            <mxPoint x="350" y="530" as="sourcePoint" />
            <mxPoint x="400" y="480" as="targetPoint" />
            <Array as="points">
              <mxPoint x="360" y="650" />
              <mxPoint x="620" y="650" />
              <mxPoint x="620" y="760" />
              <mxPoint x="220" y="760" />
            </Array>
          </mxGeometry>
        </mxCell>
        <mxCell id="ulxu33_0uJGca3cwwNkL-36" value="" style="endArrow=classic;html=1;rounded=0;entryX=0.624;entryY=0.998;entryDx=0;entryDy=0;entryPerimeter=0;exitX=0.5;exitY=0;exitDx=0;exitDy=0;" edge="1" parent="1" source="ulxu33_0uJGca3cwwNkL-7" target="QjduJrOq--Q0YO0QnX14-75">
          <mxGeometry width="50" height="50" relative="1" as="geometry">
            <mxPoint x="260" y="670" as="sourcePoint" />
            <mxPoint x="310" y="620" as="targetPoint" />
            <Array as="points">
              <mxPoint x="360" y="550" />
              <mxPoint x="630" y="550" />
              <mxPoint x="630" y="780" />
              <mxPoint x="210" y="780" />
            </Array>
          </mxGeometry>
        </mxCell>
        <mxCell id="ulxu33_0uJGca3cwwNkL-37" value="" style="endArrow=classic;html=1;rounded=0;entryX=0.5;entryY=1;entryDx=0;entryDy=0;exitX=0.5;exitY=0;exitDx=0;exitDy=0;" edge="1" parent="1" source="ulxu33_0uJGca3cwwNkL-8" target="QjduJrOq--Q0YO0QnX14-75">
          <mxGeometry width="50" height="50" relative="1" as="geometry">
            <mxPoint x="330" y="660" as="sourcePoint" />
            <mxPoint x="380" y="610" as="targetPoint" />
            <Array as="points">
              <mxPoint x="360" y="450" />
              <mxPoint x="640" y="450" />
              <mxPoint x="640" y="800" />
              <mxPoint x="200" y="800" />
            </Array>
          </mxGeometry>
        </mxCell>
        <mxCell id="ulxu33_0uJGca3cwwNkL-38" value="" style="endArrow=classic;html=1;rounded=0;exitX=0.5;exitY=0;exitDx=0;exitDy=0;entryX=0.368;entryY=1.003;entryDx=0;entryDy=0;entryPerimeter=0;" edge="1" parent="1" source="ulxu33_0uJGca3cwwNkL-6" target="QjduJrOq--Q0YO0QnX14-75">
          <mxGeometry width="50" height="50" relative="1" as="geometry">
            <mxPoint x="420" y="660" as="sourcePoint" />
            <mxPoint x="470" y="610" as="targetPoint" />
            <Array as="points">
              <mxPoint x="360" y="350" />
              <mxPoint x="650" y="350" />
              <mxPoint x="650" y="820" />
              <mxPoint x="190" y="820" />
            </Array>
          </mxGeometry>
        </mxCell>
        <mxCell id="ulxu33_0uJGca3cwwNkL-39" value="D booking" style="text;html=1;align=center;verticalAlign=middle;resizable=0;points=[];autosize=1;strokeColor=none;fillColor=none;" vertex="1" parent="1">
          <mxGeometry x="410" y="378" width="80" height="30" as="geometry" />
        </mxCell>
        <mxCell id="ulxu33_0uJGca3cwwNkL-40" value="D layanan" style="text;html=1;align=center;verticalAlign=middle;resizable=0;points=[];autosize=1;strokeColor=none;fillColor=none;" vertex="1" parent="1">
          <mxGeometry x="404" y="478" width="80" height="30" as="geometry" />
        </mxCell>
        <mxCell id="ulxu33_0uJGca3cwwNkL-41" value="D member" style="text;html=1;align=center;verticalAlign=middle;resizable=0;points=[];autosize=1;strokeColor=none;fillColor=none;" vertex="1" parent="1">
          <mxGeometry x="410" y="279" width="80" height="30" as="geometry" />
        </mxCell>
        <mxCell id="ulxu33_0uJGca3cwwNkL-42" value="D member" style="text;html=1;align=center;verticalAlign=middle;resizable=0;points=[];autosize=1;strokeColor=none;fillColor=none;" vertex="1" parent="1">
          <mxGeometry x="220" y="267.5" width="80" height="30" as="geometry" />
        </mxCell>
        <mxCell id="ulxu33_0uJGca3cwwNkL-43" value="D booking" style="text;html=1;align=center;verticalAlign=middle;resizable=0;points=[];autosize=1;strokeColor=none;fillColor=none;" vertex="1" parent="1">
          <mxGeometry x="220" y="388" width="80" height="30" as="geometry" />
        </mxCell>
        <mxCell id="ulxu33_0uJGca3cwwNkL-46" value="D layanan" style="text;html=1;align=center;verticalAlign=middle;resizable=0;points=[];autosize=1;strokeColor=none;fillColor=none;" vertex="1" parent="1">
          <mxGeometry x="220" y="469" width="80" height="30" as="geometry" />
        </mxCell>
        <mxCell id="ulxu33_0uJGca3cwwNkL-51" value="D pembayaran" style="text;html=1;align=center;verticalAlign=middle;resizable=0;points=[];autosize=1;strokeColor=none;fillColor=none;" vertex="1" parent="1">
          <mxGeometry x="209.5" y="589" width="100" height="30" as="geometry" />
        </mxCell>
        <mxCell id="ulxu33_0uJGca3cwwNkL-53" value="D pegawai" style="text;html=1;align=center;verticalAlign=middle;resizable=0;points=[];autosize=1;strokeColor=none;fillColor=none;" vertex="1" parent="1">
          <mxGeometry x="240" y="689" width="80" height="30" as="geometry" />
        </mxCell>
        <mxCell id="ulxu33_0uJGca3cwwNkL-56" value="D lap pegawai" style="text;html=1;align=center;verticalAlign=middle;resizable=0;points=[];autosize=1;strokeColor=none;fillColor=none;" vertex="1" parent="1">
          <mxGeometry x="229" y="669" width="100" height="30" as="geometry" />
        </mxCell>
        <mxCell id="ulxu33_0uJGca3cwwNkL-57" value="D lap pembayaran" style="text;html=1;align=center;verticalAlign=middle;resizable=0;points=[];autosize=1;strokeColor=none;fillColor=none;" vertex="1" parent="1">
          <mxGeometry x="199.5" y="569" width="120" height="30" as="geometry" />
        </mxCell>
        <mxCell id="ulxu33_0uJGca3cwwNkL-58" value="D lap layanan" style="text;html=1;align=center;verticalAlign=middle;resizable=0;points=[];autosize=1;strokeColor=none;fillColor=none;" vertex="1" parent="1">
          <mxGeometry x="209.5" y="489" width="100" height="30" as="geometry" />
        </mxCell>
        <mxCell id="ulxu33_0uJGca3cwwNkL-59" value="D lap booking" style="text;html=1;align=center;verticalAlign=middle;resizable=0;points=[];autosize=1;strokeColor=none;fillColor=none;" vertex="1" parent="1">
          <mxGeometry x="209" y="369" width="100" height="30" as="geometry" />
        </mxCell>
        <mxCell id="ulxu33_0uJGca3cwwNkL-60" value="D lap member" style="text;html=1;align=center;verticalAlign=middle;resizable=0;points=[];autosize=1;strokeColor=none;fillColor=none;" vertex="1" parent="1">
          <mxGeometry x="210" y="289" width="100" height="30" as="geometry" />
        </mxCell>
        <mxCell id="ulxu33_0uJGca3cwwNkL-62" value="Lap pegawai" style="text;html=1;align=center;verticalAlign=middle;resizable=0;points=[];autosize=1;strokeColor=none;fillColor=none;" vertex="1" parent="1">
          <mxGeometry x="318" y="738" width="90" height="30" as="geometry" />
        </mxCell>
        <mxCell id="ulxu33_0uJGca3cwwNkL-63" value="Lap pembayaran" style="text;html=1;align=center;verticalAlign=middle;resizable=0;points=[];autosize=1;strokeColor=none;fillColor=none;" vertex="1" parent="1">
          <mxGeometry x="308" y="759" width="110" height="30" as="geometry" />
        </mxCell>
        <mxCell id="ulxu33_0uJGca3cwwNkL-64" value="Lap layanan" style="text;html=1;align=center;verticalAlign=middle;resizable=0;points=[];autosize=1;strokeColor=none;fillColor=none;" vertex="1" parent="1">
          <mxGeometry x="318" y="780" width="90" height="30" as="geometry" />
        </mxCell>
        <mxCell id="ulxu33_0uJGca3cwwNkL-65" value="Lap booking" style="text;html=1;align=center;verticalAlign=middle;resizable=0;points=[];autosize=1;strokeColor=none;fillColor=none;" vertex="1" parent="1">
          <mxGeometry x="318" y="800" width="90" height="30" as="geometry" />
        </mxCell>
        <mxCell id="ulxu33_0uJGca3cwwNkL-66" value="Lap member" style="text;html=1;align=center;verticalAlign=middle;resizable=0;points=[];autosize=1;strokeColor=none;fillColor=none;" vertex="1" parent="1">
          <mxGeometry x="318" y="819" width="90" height="30" as="geometry" />
        </mxCell>
      </root>
    </mxGraphModel>
  </diagram>
</mxfile>
